<mxfile host="app.diagrams.net" modified="2022-05-15T15:33:29.226Z" agent="5.0 (Windows NT 10.0; Win64; x64) AppleWebKit/537.36 (KHTML, like Gecko) Chrome/101.0.4951.64 Safari/537.36 Edg/101.0.1210.47" etag="ZbMvKhj910x212Tt5hMq" version="18.0.4" type="github">
  <diagram id="jXaNnU9WBbs-hRgU_72k" name="Page-1">
    <mxGraphModel dx="640" dy="411" grid="1" gridSize="10" guides="1" tooltips="1" connect="1" arrows="1" fold="1" page="1" pageScale="1" pageWidth="827" pageHeight="1169" math="0" shadow="0">
      <root>
        <mxCell id="0" />
        <mxCell id="1" parent="0" />
        <mxCell id="43LiQiZvyMIUir7U2u6s-1" value="" style="rounded=1;whiteSpace=wrap;html=1;rotation=-90;" vertex="1" parent="1">
          <mxGeometry x="-5" y="345" width="120" height="30" as="geometry" />
        </mxCell>
        <mxCell id="43LiQiZvyMIUir7U2u6s-2" value="&lt;span style=&quot;font-size: 15px;&quot;&gt;&lt;b&gt;图像采集&lt;/b&gt;&lt;/span&gt;" style="text;html=1;strokeColor=none;fillColor=none;align=center;verticalAlign=middle;whiteSpace=wrap;rounded=0;" vertex="1" parent="1">
          <mxGeometry x="45" y="305" width="20" height="110" as="geometry" />
        </mxCell>
        <mxCell id="43LiQiZvyMIUir7U2u6s-3" value="" style="rounded=1;whiteSpace=wrap;html=1;fontSize=15;" vertex="1" parent="1">
          <mxGeometry x="120" y="400" width="160" height="40" as="geometry" />
        </mxCell>
        <mxCell id="43LiQiZvyMIUir7U2u6s-4" value="&lt;font style=&quot;font-size: 15px;&quot;&gt;&lt;b&gt;触点数目分类网络&lt;/b&gt;&lt;/font&gt;" style="text;html=1;strokeColor=none;fillColor=none;align=center;verticalAlign=middle;whiteSpace=wrap;rounded=0;fontSize=15;" vertex="1" parent="1">
          <mxGeometry x="135" y="405" width="130" height="30" as="geometry" />
        </mxCell>
      </root>
    </mxGraphModel>
  </diagram>
</mxfile>
